<svg xmlns="http://www.w3.org/2000/svg" width="464" height="926" viewBox="0 0 464 926">
  <metadata><?xpacket begin="﻿" id="W5M0MpCehiHzreSzNTczkc9d"?>
<x:xmpmeta xmlns:x="adobe:ns:meta/" x:xmptk="Adobe XMP Core 5.6-c142 79.160924, 2017/07/13-01:06:39        ">
   <rdf:RDF xmlns:rdf="http://www.w3.org/1999/02/22-rdf-syntax-ns#">
      <rdf:Description rdf:about=""/>
   </rdf:RDF>
</x:xmpmeta>
                                                                                                    
                                                                                                    
                                                                                                    
                                                                                                    
                                                                                                    
                                                                                                    
                                                                                                    
                                                                                                    
                                                                                                    
                                                                                                    
                                                                                                    
                                                                                                    
                                                                                                    
                                                                                                    
                                                                                                    
                                                                                                    
                                                                                                    
                                                                                                    
                                                                                                    
                                                                                                    
                           
<?xpacket end="w"?></metadata>
<defs>
    <style>
      .cls-1 {
        fill: #fff;
        stroke: #fff;
        stroke-linejoin: round;
        stroke-width: 1px;
        fill-rule: evenodd;
      }
    </style>
  </defs>
  <path id="outline_mockup" data-name="outline mockup" class="cls-1" d="M431.152,111.884V820.427H32.252V111.884h398.9m1.063-1.063H31.189V821.489H432.215V110.821h0ZM232.05,900.4a33.236,33.236,0,1,1,33.281-33.236A33.3,33.3,0,0,1,232.05,900.4Zm0-65.41a32.174,32.174,0,1,0,32.218,32.174A32.232,32.232,0,0,0,232.05,834.989ZM406.233,924H57.88c-28.208,0-51.157-22.331-51.157-49.781V52.942A48.965,48.965,0,0,1,21.809,17.656,51.429,51.429,0,0,1,57.88,3H406.233c27.817,0,50.448,22.4,50.448,49.942V874.218a49.159,49.159,0,0,1-14.729,35.2A50.46,50.46,0,0,1,406.233,924ZM57.88,4.062A50.369,50.369,0,0,0,22.552,18.417,47.913,47.913,0,0,0,7.787,52.942V874.218c0,26.864,22.471,48.72,50.093,48.72H406.233A49.4,49.4,0,0,0,441.2,908.666a48.1,48.1,0,0,0,14.413-34.448V52.942c0-26.953-22.153-48.88-49.384-48.88H57.88Zm204.67,60.55H200.322a3.187,3.187,0,1,1,0-6.374H262.55A3.187,3.187,0,1,1,262.55,64.612ZM200.322,59.3a2.125,2.125,0,1,0,0,4.249H262.55a2.125,2.125,0,1,0,0-4.249H200.322Zm31.585-17.765a7.275,7.275,0,1,1,7.284-7.275A7.287,7.287,0,0,1,231.907,41.535Zm0-13.487a6.212,6.212,0,1,0,6.22,6.212A6.224,6.224,0,0,0,231.907,28.049Zm-71.8,42.034a7.949,7.949,0,1,1,7.959-7.948A7.963,7.963,0,0,1,160.107,70.083Zm0-14.834a6.886,6.886,0,1,0,6.9,6.886A6.9,6.9,0,0,0,160.107,55.248ZM460.383,268.57h-4.766V202.709h4.766a1.651,1.651,0,0,1,1.617,1.88v62.1A1.651,1.651,0,0,1,460.383,268.57Zm-3.7-1.062h3.7a0.662,0.662,0,0,0,.553-0.817v-62.1a0.663,0.663,0,0,0-.553-0.818h-3.7v63.737ZM406.718,917.094H57.272c-24.06,0-43.634-19.355-43.634-43.146V53.052C13.637,29.26,33.211,9.9,57.272,9.9H406.718a43,43,0,0,1,43.049,43.148v820.9A42.994,42.994,0,0,1,406.718,917.094ZM57.272,10.967C33.8,10.967,14.7,29.846,14.7,53.052v820.9c0,23.206,19.1,42.085,42.571,42.085H406.718A41.932,41.932,0,0,0,448.7,873.948V53.052a41.932,41.932,0,0,0-41.985-42.085H57.272ZM7.787,151.188H6.212a2.115,2.115,0,0,1-2.148-1.88V121.2a2.116,2.116,0,0,1,2.148-1.88H7.787v31.869ZM6.212,120.382a1.1,1.1,0,0,0-1.085.817v28.109a1.1,1.1,0,0,0,1.085.818H6.723V120.382H6.212ZM7.787,268.57H5.148A2.115,2.115,0,0,1,3,266.691v-62.1a2.115,2.115,0,0,1,2.148-1.88H7.787V268.57Zm-2.638-64.8a1.1,1.1,0,0,0-1.085.818v62.1a1.1,1.1,0,0,0,1.085.817H6.723V203.771H5.148ZM7.787,353.553H5.148A2.115,2.115,0,0,1,3,351.673v-62.1a2.115,2.115,0,0,1,2.148-1.879H7.787v65.861Zm-2.638-64.8a1.1,1.1,0,0,0-1.085.817v62.1a1.1,1.1,0,0,0,1.085.818H6.723V288.754H5.148Z" transform="translate(-0.5 -0.5)"/>
</svg>
